<?xml version="1.0" encoding="UTF-8"?><svg id="Layer_1" xmlns="http://www.w3.org/2000/svg" xmlns:xlink="http://www.w3.org/1999/xlink" viewBox="0 0 950.82 926"><defs><style>.cls-1{fill:none;stroke:url(#linear-gradient);stroke-linecap:round;stroke-miterlimit:10;stroke-width:40px;}</style><linearGradient id="linear-gradient" x1="0" y1="463" x2="950.82" y2="463" gradientUnits="userSpaceOnUse"><stop offset="0" stop-color="#ff0"/><stop offset=".52" stop-color="#c17a20"/><stop offset="1" stop-color="#bf9500"/></linearGradient></defs><path class="cls-1" d="m521.77,442.51c29.45,39.05,23.54,87.1-1.2,106.02-29.49,22.55-81.67.63-100-30.12-27.06-45.4,8.74-128.37,71.08-146.99,61.85-18.47,126.96,33.21,142.17,87.95,20.78,74.77-50.08,160.45-130.12,169.88-88.26,10.4-172.56-73.72-169.88-163.86,2.63-88.65,88.33-147.06,162.65-154.22,99.63-9.6,194.51,71.39,204.82,167.47,12.35,115.11-102.97,210.58-212.05,215.66-123.43,5.75-239.03-104.28-237.35-237.35,1.61-127.62,110.56-234.41,243.37-232.53m-49.27-120.84l-37.52,63.59,73.83.7,73.83.7-36.31-64.29-36.31-64.29-37.52,63.59Zm67.01,718.81l37.52-63.59-73.83-.7-73.83-.7,36.31,64.29,36.31,64.29,37.52-63.59ZM103.59,500.67l63.59,37.52.7-73.83.7-73.83-64.29,36.31-64.29,36.31,63.59,37.52Zm743.63-72.63l-63.59-37.52-.7,73.83-.7,73.83,64.29-36.31,64.29-36.31-63.59-37.52ZM184.44,222.01l18.44,71.5,52.7-51.72,52.7-51.72-71.14-19.78-71.14-19.78,18.44,71.5Zm587.42,484.71l-18.44-71.5-52.7,51.72-52.7,51.72,71.14,19.78,71.14,19.78-18.44-71.5Zm-529.63,46.46l71.5-18.44-51.72-52.7-51.72-52.7-19.78,71.14-19.78,71.14,71.5-18.44ZM721.4,170.36l-71.5,18.44,51.72,52.7,51.72,52.7,19.78-71.14,19.78-71.14-71.5,18.44Z"/></svg>