<?xml version="1.0" encoding="UTF-8"?><svg id="Layer_1" xmlns="http://www.w3.org/2000/svg" viewBox="0 0 863.37 451.73"><defs><style>.cls-1{fill:#c4c4c4;}.cls-1,.cls-2{stroke:#000;stroke-linecap:round;stroke-miterlimit:10;stroke-width:25.27px;}.cls-2{fill:#fff;}</style></defs><path class="cls-1" d="m690.57,113.02c-13.97-.74-47.22,4.05-47.22,4.05-6.57-58.7-59.41-104.44-123.62-104.44-51.39,0-95.49,29.3-114.43,71.09-3.27-.24-6.56-.4-9.89-.4-54.81,0-101.3,33.34-117.84,79.61-2.14-.1-4.3-.16-6.48-.16-68.66,0-124.31,52.3-124.31,116.8s55.66,116.8,124.31,116.8c4.94,0,119.9-.35,121.07-.35.01,0,.01,0,.02,0,3.52.22,159.71,0,159.71,0,4.71.51,171.53.3,174.51.3,68.66,0,124.31-52.3,124.31-116.8,0-81.07-60.44-161.22-160.17-166.51Z"/><path class="cls-2" d="m556.41,155.73c-13.97-.74-47.22,4.05-47.22,4.05-6.57-58.7-59.41-104.44-123.62-104.44-51.39,0-95.49,29.3-114.43,71.09-3.27-.24-6.56-.4-9.89-.4-54.81,0-101.3,33.34-117.84,79.61-2.14-.1-4.3-.16-6.48-.16-68.66,0-124.31,52.3-124.31,116.8s55.66,116.8,124.31,116.8c4.94,0,119.9-.35,121.07-.35.01,0,.01,0,.02,0,3.52.22,159.71,0,159.71,0,4.71.51,171.53.3,174.51.3,68.66,0,124.31-52.3,124.31-116.8,0-81.07-60.44-161.22-160.17-166.51Z"/></svg>