<?xml version="1.0" encoding="UTF-8"?><svg id="Layer_1" xmlns="http://www.w3.org/2000/svg" viewBox="0 0 887.79 713.63"><defs><style>.cls-1{fill:#fff;stroke-width:31.7px;}.cls-1,.cls-2{stroke:#000;stroke-linecap:round;stroke-miterlimit:10;}.cls-2{fill:#06c4ff;stroke-width:10px;}</style></defs><path class="cls-1" d="m677.15,145.79c-16.99-.96-57.42,5.25-57.42,5.25-7.99-75.97-72.24-135.18-150.34-135.18-62.5,0-116.13,37.93-139.16,92.02-3.97-.31-7.97-.52-12.02-.52-66.66,0-123.2,43.16-143.31,103.04-2.61-.13-5.23-.2-7.88-.2-83.5,0-151.18,67.69-151.18,151.18s67.69,151.18,151.18,151.18c6,0,145.81-.45,147.24-.45.01,0,.01,0,.03,0,4.28.29,194.23,0,194.23,0,5.72.66,208.61.38,212.23.38,83.5,0,151.18-67.69,151.18-151.18,0-104.93-73.5-208.67-194.79-215.51Z"/><path class="cls-2" d="m263.44,611.12s-93.25,71.66-43.62,94.56c49.63,22.89,43.62-94.56,43.62-94.56Z"/><path class="cls-2" d="m454,611.12s-93.25,71.66-43.62,94.56c49.63,22.89,43.62-94.56,43.62-94.56Z"/><path class="cls-2" d="m642.95,611.04s-93.25,71.66-43.62,94.56c49.63,22.89,43.62-94.56,43.62-94.56Z"/></svg>