<?xml version="1.0" encoding="UTF-8"?><svg id="Layer_1" xmlns="http://www.w3.org/2000/svg" viewBox="0 0 917.99 663.79"><defs><style>.cls-1{fill:#c4c4c4;stroke-width:30.45px;}.cls-1,.cls-2{stroke:#000;stroke-linecap:round;stroke-miterlimit:10;}.cls-2{fill:none;stroke-width:60px;}</style></defs><line class="cls-2" x1="30" y1="396.83" x2="887.99" y2="396.83"/><line class="cls-2" x1="111.84" y1="497.23" x2="415.67" y2="497.23"/><line class="cls-2" x1="307.08" y1="633.79" x2="610.91" y2="633.79"/><line class="cls-2" x1="544.12" y1="535.88" x2="847.95" y2="535.88"/><path class="cls-1" d="m866.7,312.55c-14.05-87.93-81.2-166.7-184.34-172.51-16.32-.92-55.16,5.04-55.16,5.04-7.68-72.98-69.4-129.85-144.4-129.85-60.03,0-111.55,36.43-133.67,88.39-3.81-.3-7.66-.5-11.55-.5-64.03,0-118.34,41.45-137.65,98.97-2.51-.13-5.03-.2-7.56-.2-68.29,0-125.56,47.14-141.07,110.66h815.41Z"/></svg>