<?xml version="1.0" encoding="UTF-8"?><svg id="Layer_1" xmlns="http://www.w3.org/2000/svg" viewBox="0 0 838.9 798.46"><defs><style>.cls-1{fill:#06c4ff;stroke-width:10px;}.cls-1,.cls-2{stroke:#000;stroke-linecap:round;stroke-miterlimit:10;}.cls-2{fill:#c4c4c4;stroke-width:29.96px;}</style></defs><path class="cls-2" d="m639.87,137.76c-16.06-.91-54.26,4.96-54.26,4.96-7.55-71.79-68.27-127.74-142.06-127.74-59.06,0-109.74,35.84-131.5,86.95-3.75-.3-7.53-.49-11.36-.49-62.99,0-116.41,40.78-135.42,97.36-2.46-.13-4.95-.19-7.44-.19-78.9,0-142.86,63.96-142.86,142.86s63.96,142.86,142.86,142.86c5.67,0,137.78-.42,139.13-.43.01,0,.01,0,.02,0,4.04.27,183.54,0,183.54,0,5.41.62,197.12.36,200.54.36,78.9,0,142.86-63.96,142.86-142.86,0-99.15-69.45-197.18-184.06-203.64Z"/><path class="cls-1" d="m291.09,553.63s-93.25,71.66-43.62,94.56,43.62-94.56,43.62-94.56Z"/><path class="cls-1" d="m481.64,553.63s-93.25,71.66-43.62,94.56c49.63,22.89,43.62-94.56,43.62-94.56Z"/><path class="cls-1" d="m670.59,553.55s-93.25,71.66-43.62,94.56,43.62-94.56,43.62-94.56Z"/><path class="cls-1" d="m162.14,695.95s-93.25,71.66-43.62,94.56,43.62-94.56,43.62-94.56Z"/><path class="cls-1" d="m352.69,695.95s-93.25,71.66-43.62,94.56,43.62-94.56,43.62-94.56Z"/><path class="cls-1" d="m541.64,695.87s-93.25,71.66-43.62,94.56,43.62-94.56,43.62-94.56Z"/></svg>