<?xml version="1.0" encoding="UTF-8"?><svg id="Layer_1" xmlns="http://www.w3.org/2000/svg" xmlns:xlink="http://www.w3.org/1999/xlink" viewBox="0 0 688.65 720.65"><defs><style>.cls-1{fill:url(#linear-gradient);stroke:#000;stroke-miterlimit:10;stroke-width:14.78px;}</style><linearGradient id="linear-gradient" x1="31.51" y1="203.78" x2="666.49" y2="518.53" gradientUnits="userSpaceOnUse"><stop offset="0" stop-color="#0af"/><stop offset="1" stop-color="#02a"/></linearGradient></defs><path class="cls-1" d="m679.53,464.5l-14.77-52.18-108.74,30.77-20.35-11.37h0l-45.22-25.27,26.81-46.43-23.23-40.23,42.32-24.83h0l20.11-11.79,109.36,28.49,13.67-52.48-56.88-14.82,48.25-28.31-37.95-64.69-52.17,30.6,16.43-63.08-52.48-13.67-30.11,115.56-16.19,9.5h0l-41.87,24.56-23.1-40.02h-46.33v-74.77l79.91-79.91-38.35-38.35-41.56,41.56V7.39h-75v60.48l-46.09-46.09-38.35,38.35,84.44,84.44v70.24h-46.33l-28.84,49.95-45.15-25.23h0s-20.35-11.37-20.35-11.37l-30.77-108.74-52.18,14.77,16,56.55-48.84-27.29-36.59,65.47,52.8,29.5-62.72,17.75,14.77,52.18,114.91-32.52,11.45,6.4,4.94,2.76h0l44.24,24.72-17.49,30.3,24.11,41.77-47.45,27.83h0l-16.19,9.5-115.56-30.11-13.67,52.48,63.08,16.43-52.17,30.6,37.95,64.69,48.26-28.31-14.82,56.88,52.48,13.67,28.49-109.36,67.1-39.37,22.22,38.48h46.33v70.87l-84.44,84.44,38.35,38.35,46.09-46.09v60.48h75v-55.95l41.56,41.56,38.35-38.35-79.91-79.91v-75.4h46.33l19.52-33.81,46.14,25.79h0l16.39,9.16,32.52,114.91,52.18-14.77-17.75-62.72,52.8,29.5,36.59-65.47-48.84-27.29,56.55-16Zm-287.48-30.95h-84.91l-42.45-73.53,42.45-73.53h84.91l42.45,73.53-42.45,73.53Z"/></svg>