<?xml version="1.0" encoding="UTF-8"?><svg id="Layer_1" xmlns="http://www.w3.org/2000/svg" viewBox="0 0 730.01 898.24"><defs><style>.cls-1{fill:#c4c4c4;stroke-width:26.07px;}.cls-1,.cls-2{stroke:#000;stroke-linecap:round;stroke-miterlimit:10;}.cls-2{fill:#ffec00;stroke-width:20.32px;}</style></defs><polygon class="cls-2" points="291.16 392.89 237.23 581.13 345.09 581.13 276.28 826.58 464.21 509.34 382.73 505.83 462.1 392.89 291.16 392.89"/><path class="cls-1" d="m556.81,119.88c-13.97-.79-47.22,4.31-47.22,4.31-6.57-62.47-59.41-111.16-123.62-111.16-51.39,0-95.49,31.19-114.43,75.67-3.27-.26-6.56-.43-9.89-.43-54.81,0-101.3,35.49-117.84,84.73-2.14-.11-4.3-.17-6.48-.17-68.66,0-124.31,55.66-124.31,124.31s55.66,124.31,124.31,124.31c4.94,0,119.9-.37,121.07-.37.01,0,.01,0,.02,0,3.52.24,159.71,0,159.71,0,4.71.54,171.53.32,174.51.32,68.66,0,124.31-55.66,124.31-124.31,0-86.28-60.44-171.58-160.17-177.21Z"/></svg>