<?xml version="1.0" encoding="UTF-8"?><svg id="Layer_1" xmlns="http://www.w3.org/2000/svg" xmlns:xlink="http://www.w3.org/1999/xlink" viewBox="0 0 962.9 962.9"><defs><style>.cls-1{fill:#b20404;}.cls-1,.cls-2,.cls-3,.cls-4,.cls-5,.cls-6,.cls-7,.cls-8,.cls-9,.cls-10{stroke-miterlimit:10;}.cls-1,.cls-2,.cls-3,.cls-4,.cls-5,.cls-6,.cls-7,.cls-8,.cls-10{stroke:#000;}.cls-2{fill:url(#linear-gradient-2);stroke-width:5.63px;}.cls-3{fill:blue;}.cls-4{fill:#fff;}.cls-4,.cls-5{stroke-width:8.97px;}.cls-4,.cls-5,.cls-6,.cls-8,.cls-9{stroke-linecap:round;}.cls-5,.cls-6{fill:#c4c4c4;}.cls-6{stroke-width:10.34px;}.cls-7{fill:#00ff42;}.cls-8{fill:#06c4ff;stroke-width:3.45px;}.cls-9{fill:none;stroke:url(#linear-gradient);stroke-width:12.57px;}.cls-10{fill:#ff7900;}</style><linearGradient id="linear-gradient" x1="128.02" y1="287.92" x2="426.93" y2="287.92" gradientUnits="userSpaceOnUse"><stop offset="0" stop-color="#ff0"/><stop offset=".52" stop-color="#c17a20"/><stop offset="1" stop-color="#bf9500"/></linearGradient><linearGradient id="linear-gradient-2" x1="553.42" y1="617.49" x2="795.49" y2="737.48" gradientUnits="userSpaceOnUse"><stop offset="0" stop-color="#0af"/><stop offset="1" stop-color="#02a"/></linearGradient></defs><path class="cls-1" d="m481.02,481.02V.5C200.38.5.5,236.77.5,481.02c129.76,0,480.52,0,480.52,0Z"/><path class="cls-7" d="m481.88,481.02V.5c280.64,0,480.52,236.27,480.52,480.52-129.76,0-480.52,0-480.52,0Z"/><path class="cls-10" d="m481.02,481.88v480.52C200.38,962.4.5,726.14.5,481.88c129.76,0,480.52,0,480.52,0Z"/><path class="cls-3" d="m481.88,481.88v480.52c280.64,0,480.52-236.27,480.52-480.52-129.76,0-480.52,0-480.52,0Z"/><path class="cls-6" d="m772.14,194.79c-5.54-.31-18.74,1.71-18.74,1.71-2.61-24.79-23.57-44.11-49.05-44.11-20.39,0-37.89,12.38-45.41,30.03-1.3-.1-2.6-.17-3.92-.17-21.75,0-40.2,14.08-46.76,33.62-.85-.04-1.71-.07-2.57-.07-27.24,0-49.33,22.09-49.33,49.33s22.09,49.33,49.33,49.33c1.96,0,47.58-.15,48.04-.15,0,0,0,0,0,0,1.4.09,63.38,0,63.38,0,1.87.21,68.07.13,69.25.13,27.24,0,49.33-22.09,49.33-49.33,0-34.24-23.98-68.09-63.56-70.32Z"/><path class="cls-8" d="m651.7,338.4s-32.2,24.75-15.06,32.65c17.14,7.91,15.06-32.65,15.06-32.65Z"/><path class="cls-8" d="m717.5,338.4s-32.2,24.75-15.06,32.65c17.14,7.91,15.06-32.65,15.06-32.65Z"/><path class="cls-8" d="m782.75,338.37s-32.2,24.75-15.06,32.65,15.06-32.65,15.06-32.65Z"/><path class="cls-8" d="m607.18,387.54s-32.2,24.75-15.06,32.65,15.06-32.65,15.06-32.65Z"/><path class="cls-8" d="m672.98,387.54s-32.2,24.75-15.06,32.65c17.14,7.91,15.06-32.65,15.06-32.65Z"/><path class="cls-8" d="m738.22,387.52s-32.2,24.75-15.06,32.65c17.14,7.91,15.06-32.65,15.06-32.65Z"/><path class="cls-9" d="m292.05,281.47c9.26,12.28,7.4,27.38-.38,33.33-9.27,7.09-25.68.2-31.44-9.47-8.51-14.27,2.75-40.36,22.35-46.21,19.44-5.81,39.91,10.44,44.69,27.65,6.53,23.5-15.74,50.44-40.91,53.41-27.75,3.27-54.25-23.18-53.41-51.51.83-27.87,27.77-46.23,51.13-48.48,31.32-3.02,61.15,22.44,64.39,52.65,3.88,36.19-32.37,66.2-66.66,67.8-38.8,1.81-75.14-32.78-74.62-74.62.51-40.12,34.76-73.69,76.51-73.1m-15.49-37.99l-11.8,19.99,23.21.22,23.21.22-11.42-20.21-11.42-20.21-11.8,19.99Zm21.07,225.97l11.8-19.99-23.21-.22-23.21-.22,11.42,20.21,11.42,20.21,11.8-19.99Zm-128.71-101.14l19.99,11.8.22-23.21.22-23.21-20.21,11.42-20.21,11.42,19.99,11.8Zm233.78-22.83l-19.99-11.8-.22,23.21-.22,23.21,20.21-11.42,20.21-11.42-19.99-11.8Zm-208.36-64.77l5.8,22.48,16.57-16.26,16.57-16.26-22.36-6.22-22.36-6.22,5.8,22.48Zm184.67,152.38l-5.8-22.48-16.57,16.26-16.57,16.26,22.36,6.22,22.36,6.22-5.8-22.48Zm-166.5,14.61l22.48-5.8-16.26-16.57-16.26-16.57-6.22,22.36-6.22,22.36,22.48-5.8Zm150.64-183.22l-22.48,5.8,16.26,16.57,16.26,16.57,6.22-22.36,6.22-22.36-22.48,5.8Z"/><path class="cls-2" d="m800.45,716.88l-5.63-19.89-41.45,11.73-7.76-4.33h0l-17.24-9.63,10.22-17.7-8.85-15.34,16.13-9.46h0l7.66-4.5,41.69,10.86,5.21-20.01-21.68-5.65,18.4-10.79-14.47-24.66-19.89,11.67,6.26-24.05-20.01-5.21-11.48,44.05-6.17,3.62h0l-15.96,9.36-8.81-15.25h-17.66v-28.5l30.46-30.46-14.62-14.62-15.84,15.84v-21.33h-28.59v23.06l-17.57-17.57-14.62,14.62,32.19,32.19v26.78h-17.66l-10.99,19.04-17.21-9.62h0s-7.76-4.33-7.76-4.33l-11.73-41.45-19.89,5.63,6.1,21.56-18.62-10.4-13.95,24.96,20.13,11.25-23.91,6.77,5.63,19.89,43.8-12.4,4.37,2.44,1.88,1.05h0l16.86,9.42-6.67,11.55,9.19,15.92-18.09,10.61h0l-6.17,3.62-44.05-11.48-5.21,20.01,24.05,6.26-19.89,11.67,14.47,24.66,18.4-10.79-5.65,21.68,20.01,5.21,10.86-41.69,25.58-15.01,8.47,14.67h17.66v27.02l-32.19,32.19,14.62,14.62,17.57-17.57v23.06h28.59v-21.33l15.84,15.84,14.62-14.62-30.46-30.46v-28.74h17.66l7.44-12.89,17.59,9.83h0l6.25,3.49,12.4,43.8,19.89-5.63-6.77-23.91,20.13,11.25,13.95-24.96-18.62-10.4,21.56-6.1Zm-109.59-11.8h-32.37l-16.18-28.03,16.18-28.03h32.37l16.18,28.03-16.18,28.03Z"/><path class="cls-5" d="m372.82,633.91c-5.07-.26-17.13,1.41-17.13,1.41-2.38-20.36-21.56-36.23-44.86-36.23-18.65,0-34.65,10.17-41.52,24.66-1.18-.08-2.38-.14-3.59-.14-19.89,0-36.76,11.57-42.76,27.62-.78-.04-1.56-.05-2.35-.05-24.91,0-45.11,18.14-45.11,40.52s20.2,40.52,45.11,40.52c1.79,0,43.51-.12,43.93-.12,0,0,0,0,0,0,1.28.08,57.96,0,57.96,0,1.71.18,62.25.1,63.33.1,24.91,0,45.11-18.14,45.11-40.52,0-28.12-21.93-55.93-58.12-57.76Z"/><path class="cls-4" d="m324.14,648.72c-5.07-.26-17.13,1.41-17.13,1.41-2.38-20.36-21.56-36.23-44.86-36.23-18.65,0-34.65,10.17-41.52,24.66-1.18-.08-2.38-.14-3.59-.14-19.89,0-36.76,11.57-42.76,27.62-.78-.04-1.56-.05-2.35-.05-24.91,0-45.11,18.14-45.11,40.52s20.2,40.52,45.11,40.52c1.79,0,43.51-.12,43.93-.12,0,0,0,0,0,0,1.28.08,57.96,0,57.96,0,1.71.18,62.25.1,63.33.1,24.91,0,45.11-18.14,45.11-40.52,0-28.12-21.93-55.93-58.12-57.76Z"/></svg>